{"title":"2 Fast 2 Furious(2003)Bluray Rip in[Hindi-Eng]By !!!dip","uid":6432988,"size":3457156776,"categoryP":"video","categoryS":"hd___movies","magnet":"?xt=urn:btih:3e56b884c938424261922d619ee0eabe14369a84&amp;dn=2+Fast+2+Furious%282003%29Bluray+Rip+in%5BHindi-Eng%5DBy+%21%21%21dip&amp;tr=udp%3A%2F%2Ftracker.openbittorrent.com%3A80&amp;tr=udp%3A%2F%2Fopen.demonii.com%3A1337&amp;tr=udp%3A%2F%2Ftracker.coppersurfer.tk%3A6969&amp;tr=udp%3A%2F%2Fexodus.desync.com%3A6969","seeders":0,"leechers":1,"uploader":"dipty","files":-1,"time":1306720186,"description":"             =!HD DESI ROCKER RELEASES!=/=DK Group HD Bluray Releases=\n\n===================================================================================\n\n             2 Fast 2 Furious(2003)Bluray Rip in[Hindi-Eng]By !!!dip\n\n===================================================================================\n\nStoryline:\n\nFormer cop Brian O'Conner who teams up with his ex-con pal Roman Pearce to transport a shipment of 'dirty' money for shady Miami-based import-export dealer Carter Verone, while actually working with undercover agent Monica Fuentes to bring Verone down. Written by rupekooner \n\nCast:\n\nPaul Walker................Brian O'Conner\nTyrese Gibson..............Roman Pearce (as Tyrese)\nEva Mendes.................Monica Fuentes\nCole Hauser................Carter Verone\nLudacris...................Tej (as Chris 'Ludacris' Bridges)\nThom Barry.................Agent Bilkins\nJames Remar................Agent Markham\nDevon Aoki.................Suki\nAmaury Nolasco.............Orange Julius\nMichael Ealy...............Slap Jack\nJin Auyeung................Jimmy\nEdward Finlay..............Agent Dunn\nMark Boone Junior..........Detective Whitworth\nMo Gallini.................Enrique (as Matt Gallini)\nRoberto 'Sanz' Sanchez.....Roberto\n\nDirectors        :John Singleton\nWriters          :Gary Scott Thompson (characters), Michael Brandt (story)\nStars            :Paul Walker, Tyrese Gibson and Cole Hauser\nFormat           :Color,MKV,Widescreen\nLanguage         :Hindi-English\nRelease Date     :6 June 2003 (USA)\nRun Time         :1H:47M:42S\nFrame rate       :25.000 fps\nColor            :Color\nSUBTITLE         :no\n\nVideo Specifications:\n\nFormat: H.264/MPEG-4 AVC\nBitrate:448 kb/ps\nFramerate:23.976 FPS\n\nRelease Title/Year/Language...:2 Fast 2 Furious(2003)Bluray Rip in[Hindi-Eng]By !!!dip\nGenre.....................: Action | Crime | Thriller\nSource....................: Bluray\nFormat....................: Matroska(MKV)\nFile size.................: 3.20 GiB\nVIDEO Stream size.........: 2.94 GiB (92%)\nDuration..................: 1H:47M:42S\nOverall bit rate..........: 4 253 Kbps\nResolution................: 1280 x 528 pixels\nTeam......................: DK Group HD Bluray Releases/HD DESI ROCKER RELEAESEES\n\n\nAudio Specifications:\n\nAudio #1\nFormat                           : MPEG Audio\nFormat version                   : Version 1\nFormat profile                   : Layer 3\nMode                             : Joint stereo\nMode extension                   : MS Stereo\nMuxing mode                      : Header stripping\nCodec ID                         : A_MPEG/L3\nCodec ID/Hint                    : MP3\nDuration                         : 1h 47mn\nBit rate mode                    : Constant\nBit rate                         : 128 Kbps\nChannel(s)                       : 2 channels\nSampling rate                    : 48.0 KHz\nCompression mode                 : Lossy\nStream size                      : 98.6 MiB (3%)\nWriting library                  : LAME3.96.1\nLanguage                         : English\n\nAudio #2\nFormat                           : MPEG Audio\nFormat version                   : Version 1\nFormat profile                   : Layer 2\nMuxing mode                      : Header stripping\nCodec ID                         : A_MPEG/L2\nCodec ID/Hint                    : MP2\nDuration                         : 1h 47mn\nBit rate mode                    : Constant\nBit rate                         : 128 Kbps\nChannel(s)                       : 2 channels\nSampling rate                    : 44.1 KHz\nStream size                      : 98.6 MiB (3%)\nLanguage                         : Hindi\n\nSAMPLE IMAGE:\n &lt;a href=&quot;\nhttp://www.pix2links.com/images/09171848999575768879.jpg&quot; rel=&quot;nofollow&quot; target=&quot;_NEW&quot;&gt;\nhttp://www.pix2links.com/images/09171848999575768879.jpg&lt;/a&gt;\n &lt;a href=&quot;\nhttp://www.pix2links.com/images/85741132579942964643.jpg&quot; rel=&quot;nofollow&quot; target=&quot;_NEW&quot;&gt;\nhttp://www.pix2links.com/images/85741132579942964643.jpg&lt;/a&gt;\n &lt;a href=&quot;\nhttp://www.pix2links.com/images/16630307986704169030.jpg&quot; rel=&quot;nofollow&quot; target=&quot;_NEW&quot;&gt;\nhttp://www.pix2links.com/images/16630307986704169030.jpg&lt;/a&gt;\n &lt;a href=&quot;\nhttp://www.pix2links.com/images/30610047965175585376.jpg&quot; rel=&quot;nofollow&quot; target=&quot;_NEW&quot;&gt;\nhttp://www.pix2links.com/images/30610047965175585376.jpg&lt;/a&gt;\n &lt;a href=&quot;\nhttp://www.pix2links.com/images/91015420948213746624.jpg&quot; rel=&quot;nofollow&quot; target=&quot;_NEW&quot;&gt;\nhttp://www.pix2links.com/images/91015420948213746624.jpg&lt;/a&gt;\n\n\nSAMPLE VIDEO INCLUDED:\n\n ","torrent":{"xt":"urn:btih:3e56b884c938424261922d619ee0eabe14369a84","amp;dn":"2+Fast+2+Furious%282003%29Bluray+Rip+in%5BHindi-Eng%5DBy+%21%21%21dip","amp;tr":["udp%3A%2F%2Ftracker.openbittorrent.com%3A80","udp%3A%2F%2Fopen.demonii.com%3A1337","udp%3A%2F%2Ftracker.coppersurfer.tk%3A6969","udp%3A%2F%2Fexodus.desync.com%3A6969"],"infoHash":"3e56b884c938424261922d619ee0eabe14369a84","infoHashBuffer":{"type":"Buffer","data":[62,86,184,132,201,56,66,66,97,146,45,97,158,224,234,190,20,54,154,132]},"announce":[],"urlList":[]}}